<svg width="94" height="102" viewBox="0 0 94 102" fill="none" xmlns="http://www.w3.org/2000/svg">
<g filter="url(#filter0_d_510_144)">
<path d="M12 22C12 16.4772 16.4772 12 22 12H68C73.5228 12 78 16.4772 78 22V76C78 81.5228 73.5228 86 68 86H22C16.4772 86 12 81.5228 12 76V22Z" fill="#41D635" fill-opacity="0.8" shape-rendering="crispEdges"/>
<path d="M45.4074 29.2666C56.6391 29.2666 65.7777 36.8052 65.7777 46.0732C65.7777 49.7829 64.3645 53.1225 61.4108 56.4129C57.1381 61.4145 47.5819 67.5059 45.4074 68.4379C43.2939 69.344 43.5384 67.9279 43.6351 67.3687L43.6428 67.3221L43.9331 65.5488C44.0018 65.0207 44.0731 64.2 43.8668 63.6771C43.6377 63.0998 42.7363 62.7995 42.0743 62.6545C32.2837 61.342 25.037 54.3807 25.037 46.0732C25.037 36.8052 34.1782 29.2666 45.4074 29.2666ZM37.8245 49.1642H33.9414V41.9984C33.9414 41.8917 33.8999 41.7894 33.8259 41.7137C33.752 41.6381 33.6516 41.5952 33.5467 41.5945H32.1157C32.0635 41.5945 32.0119 41.605 31.9637 41.6253C31.9155 41.6456 31.8717 41.6753 31.8348 41.7128C31.7979 41.7503 31.7687 41.7948 31.7487 41.8438C31.7287 41.8928 31.7185 41.9453 31.7185 41.9984V51.023C31.7185 51.1291 31.7618 51.2301 31.8305 51.3V51.3026L31.8356 51.3077L31.8407 51.3129C31.8769 51.3491 31.9199 51.3776 31.9672 51.3968C32.0144 51.4159 32.0649 51.4252 32.1157 51.4242H37.8245C38.0435 51.4242 38.2192 51.243 38.2192 51.0204V49.5706C38.2195 49.5176 38.2096 49.465 38.1899 49.4159C38.1703 49.3668 38.1413 49.3221 38.1046 49.2843C38.068 49.2466 38.0244 49.2165 37.9763 49.1959C37.9282 49.1753 37.8767 49.1645 37.8245 49.1642ZM39.8386 41.5945C39.7333 41.5945 39.6322 41.6371 39.5577 41.7128C39.4832 41.7885 39.4414 41.8913 39.4414 41.9984V51.023C39.4414 51.2456 39.6196 51.4242 39.8386 51.4242H41.2696C41.4886 51.4242 41.6643 51.243 41.6643 51.023V41.9984C41.6643 41.8917 41.6228 41.7894 41.5489 41.7137C41.4749 41.6381 41.3745 41.5952 41.2696 41.5945H39.8386ZM49.6749 41.5945C49.5696 41.5945 49.4686 41.6371 49.3941 41.7128C49.3196 41.7885 49.2777 41.8913 49.2777 41.9984V47.3572L45.2113 41.7757L45.1782 41.7369L45.1527 41.7084L45.1451 41.7007L45.1171 41.6774L45.1018 41.667L45.0942 41.6618L45.0814 41.6541L45.0611 41.6411H45.056L45.0483 41.6359L45.0229 41.6256L45.0127 41.6204L44.9872 41.6126H44.9821L44.9745 41.6101L44.9516 41.6049H44.9363L44.9287 41.6023H44.9185L44.9134 41.5997H43.4518C43.3469 41.5997 43.2462 41.6419 43.1718 41.7171C43.0974 41.7922 43.0553 41.8943 43.0546 42.001V51.0256C43.0546 51.2482 43.2328 51.4268 43.4518 51.4268H44.8777C45.0993 51.4268 45.2775 51.2456 45.2775 51.0256V45.6667L49.3516 51.2586C49.3801 51.2958 49.4135 51.3289 49.4509 51.3569L49.4534 51.3595L49.4789 51.375L49.4891 51.3802L49.5094 51.3906L49.5273 51.3983L49.54 51.4035L49.5655 51.4113H49.5731C49.6064 51.42 49.6406 51.4252 49.6749 51.4268H51.1009C51.3224 51.4268 51.5006 51.2456 51.5006 51.0256V41.9984C51.5006 41.8913 51.4588 41.7885 51.3843 41.7128C51.3098 41.6371 51.2088 41.5945 51.1034 41.5945H49.6749ZM59.3891 43.4507V42.001C59.3894 41.9479 59.3795 41.8953 59.3598 41.8462C59.3402 41.7971 59.3112 41.7524 59.2745 41.7146C59.2379 41.6769 59.1943 41.6469 59.1462 41.6263C59.0981 41.6056 59.0466 41.5949 58.9944 41.5945H53.2856C53.1831 41.596 53.0849 41.6366 53.0106 41.7084H53.0081L53.0055 41.7136L53.0004 41.7214C52.9304 41.7963 52.8904 41.8951 52.8884 41.9984V51.023C52.8884 51.1291 52.9317 51.2301 53.0004 51.3L53.0055 51.3077L53.0106 51.3129C53.0853 51.3838 53.1834 51.4235 53.2856 51.4242H58.9944C59.2134 51.4242 59.3891 51.243 59.3891 51.0204V49.5706C59.3894 49.5176 59.3795 49.465 59.3598 49.4159C59.3402 49.3668 59.3112 49.3221 59.2745 49.2843C59.2379 49.2466 59.1943 49.2165 59.1462 49.1959C59.0981 49.1753 59.0466 49.1645 58.9944 49.1642H55.1087V47.6394H58.9918C59.2108 47.6394 59.3865 47.4582 59.3865 47.2355V45.7858C59.3869 45.7328 59.3769 45.6802 59.3573 45.6311C59.3376 45.5819 59.3086 45.5372 59.272 45.4995C59.2353 45.4617 59.1917 45.4317 59.1437 45.4111C59.0956 45.3905 59.044 45.3797 58.9918 45.3794H55.1087V43.8546H58.9918C59.2108 43.8546 59.3865 43.6733 59.3865 43.4507H59.3891Z" fill="white"/>
</g>
<defs>
<filter id="filter0_d_510_144" x="0.8" y="0.8" width="92.4" height="100.4" filterUnits="userSpaceOnUse" color-interpolation-filters="sRGB">
<feFlood flood-opacity="0" result="BackgroundImageFix"/>
<feColorMatrix in="SourceAlpha" type="matrix" values="0 0 0 0 0 0 0 0 0 0 0 0 0 0 0 0 0 0 127 0" result="hardAlpha"/>
<feOffset dx="2" dy="2"/>
<feGaussianBlur stdDeviation="6.6"/>
<feComposite in2="hardAlpha" operator="out"/>
<feColorMatrix type="matrix" values="0 0 0 0 1 0 0 0 0 0.618494 0 0 0 0 0.170638 0 0 0 0.5 0"/>
<feBlend mode="normal" in2="BackgroundImageFix" result="effect1_dropShadow_510_144"/>
<feBlend mode="normal" in="SourceGraphic" in2="effect1_dropShadow_510_144" result="shape"/>
</filter>
</defs>
</svg>
